:FULLY-SPECIFIED
:FORCE-ALL-JOINTS-BE-3DOF
:DEGREES
2854
root -6.097 13.2476 -28.8205 161.004 -66.9513 -159.218
lfemur -66.1692 45.1861 -6.08394
ltibia 77.4957 -0 0
lfoot -4.8983 -6.48587 -0.000355779
ltoes -28.5747 0 0
rfemur -31.3622 -19.2018 22.2603
rtibia 89.1568 -0 0
rfoot -41.1502 -29.189 -0.00759994
rtoes -13.891 0 0
lowerback 15.6515 5.61752 1.04726
upperback -4.51887 7.99116 1.63557
thorax -13.9531 3.69148 -0.947191
lowerneck -2.55647 9.6222 2.19945
upperneck 9.212 12.5251 2.07372
head 3.42337 6.32765 0.77226
lclavicle -3.57812e-14 -2.06736e-14 0
lhumerus 5.5271 12.3912 84.3391
lradius 93.3388 -0 0
lwrist -19.0161 0 0
lhand -39.5569 28.6513 1.25309e-05
lfingers 7.12502 -0 0
lthumb -12.5406 58.2548 1.21185e-05
rclavicle -3.57812e-14 -2.06736e-14 0
rhumerus -59.2665 51.1681 -111.689
rradius 113.544 -0 0
rwrist -83.7283 0 0
rhand 8.0877 -26.2468 1.65925e-05
rfingers 7.12502 -0 0
rthumb 33.3106 -53.1832 -0.000761497
2855
root -6.09669 13.2469 -28.8185 160.959 -66.9577 -159.156
lfemur -66.2167 45.1754 -6.07938
ltibia 77.5293 -0 0
lfoot -4.92716 -6.49543 -0.000423829
ltoes -28.6269 0 0
rfemur -31.3867 -19.1933 22.2885
rtibia 89.1807 -0 0
rfoot -41.1383 -29.2392 -0.00753731
rtoes -13.9078 0 0
lowerback 15.6694 5.61271 1.07458
upperback -4.52402 7.99149 1.63964
thorax -13.9667 3.68888 -0.959842
lowerneck -2.56122 9.62332 2.20019
upperneck 9.21372 12.5263 2.07486
head 3.42485 6.32834 0.772912
lclavicle -3.57812e-14 -2.06736e-14 0
lhumerus 5.53827 12.3971 84.3401
lradius 93.3283 -0 0
lwrist -19.0089 0 0
lhand -39.5547 28.6625 1.01624e-05
lfingers 7.12502 -0 0
lthumb -12.5385 58.2662 9.80661e-06
rclavicle -3.57812e-14 -2.06736e-14 0
rhumerus -59.267 51.1836 -111.687
rradius 113.54 -0 0
rwrist -83.7078 0 0
rhand 8.09382 -26.2376 -2.23295e-06
rfingers 7.12502 -0 0
rthumb 33.3165 -53.1727 -0.000770377
2856
root -6.09635 13.2462 -28.8164 160.915 -66.9633 -159.096
lfemur -66.2617 45.1646 -6.07474
ltibia 77.5605 -0 0
lfoot -4.95563 -6.50352 -0.000488055
ltoes -28.6806 0 0
rfemur -31.4106 -19.1847 22.3159
rtibia 89.2027 -0 0
rfoot -41.1252 -29.2876 -0.00742722
rtoes -13.9249 0 0
lowerback 15.6868 5.60801 1.10134
upperback -4.52909 7.99184 1.64366
thorax -13.9801 3.68634 -0.972198
lowerneck -2.56591 9.62442 2.20092
upperneck 9.21506 12.5276 2.07594
head 3.42618 6.32904 0.77353
lclavicle -3.57812e-14 -2.06736e-14 0
lhumerus 5.54821 12.4027 84.3409
lradius 93.3183 -0 0
lwrist -19.0019 0 0
lhand -39.5527 28.6735 7.70566e-06
lfingers 7.12502 -0 0
lthumb -12.5365 58.2773 7.40932e-06
rclavicle -3.57812e-14 -2.06736e-14 0
rhumerus -59.2669 51.1985 -111.685
rradius 113.537 -0 0
rwrist -83.6878 0 0
rhand 8.09875 -26.2285 -2.06264e-05
rfingers 7.12502 -0 0
rthumb 33.3211 -53.1626 -0.00077441
2857
root -6.09598 13.2455 -28.8143 160.872 -66.9682 -159.037
lfemur -66.3043 45.1538 -6.07004
ltibia 77.5892 -0 0
lfoot -4.98364 -6.5101 -0.00054696
ltoes -28.7357 0 0
rfemur -31.434 -19.1762 22.3426
rtibia 89.2227 -0 0
rfoot -41.1109 -29.3341 -0.00726865
rtoes -13.942 0 0
lowerback 15.7037 5.60343 1.12746
upperback -4.53407 7.99219 1.64761
thorax -13.9931 3.68387 -0.984221
lowerneck -2.57053 9.62552 2.20161
upperneck 9.21602 12.5288 2.07696
head 3.42737 6.32973 0.774111
lclavicle -3.57812e-14 -2.06736e-14 0
lhumerus 5.55688 12.4078 84.3415
lradius 93.309 -0 0
lwrist -18.9951 0 0
lhand -39.5506 28.6841 5.2115e-06
lfingers 7.12502 -0 0
lthumb -12.5346 58.288 4.97623e-06
rclavicle -3.57812e-14 -2.06736e-14 0
rhumerus -59.2665 51.2127 -111.682
rradius 113.534 -0 0
rwrist -83.6684 0 0
rhand 8.10246 -26.2195 -3.82196e-05
rfingers 7.12502 -0 0
rthumb 33.3247 -53.1528 -0.000773163
2858
root -6.09561 13.2448 -28.8121 160.831 -66.9723 -158.98
lfemur -66.344 45.1429 -6.0653
ltibia 77.6152 -0 0
lfoot -5.0111 -6.51512 -0.000599018
ltoes -28.792 0 0
rfemur -31.4568 -19.1677 22.3684
rtibia 89.2407 -0 0
rfoot -41.0956 -29.3785 -0.00706082
rtoes -13.9592 0 0
lowerback 15.7201 5.59897 1.15287
upperback -4.53894 7.99255 1.65149
thorax -14.0057 3.68148 -0.995873
lowerneck -2.57505 9.62659 2.20228
upperneck 9.21658 12.53 2.07791
head 3.4284 6.33042 0.774653
lclavicle -3.57812e-14 -2.06736e-14 0
lhumerus 5.56423 12.4124 84.3418
lradius 93.3004 -0 0
lwrist -18.9885 0 0
lhand -39.5487 28.6943 2.73429e-06
lfingers 7.12502 -0 0
lthumb -12.5327 58.2983 2.56047e-06
rclavicle -3.57812e-14 -2.06736e-14 0
rhumerus -59.2656 51.2263 -111.679
rradius 113.532 -0 0
rwrist -83.6495 0 0
rhand 8.10493 -26.2107 -5.46379e-05
rfingers 7.12502 -0 0
rthumb 33.327 -53.1434 -0.000766203
2859
root -6.09525 13.244 -28.8099 160.791 -66.9756 -158.926
lfemur -66.3809 45.1321 -6.06052
ltibia 77.6385 -0 0
lfoot -5.03792 -6.51854 -0.000642692
ltoes -28.8494 0 0
rfemur -31.4789 -19.1593 22.3932
rtibia 89.2566 -0 0
rfoot -41.0791 -29.4206 -0.0068032
rtoes -13.9765 0 0
lowerback 15.7359 5.59466 1.17747
upperback -4.5437 7.99292 1.65529
thorax -14.0179 3.67918 -1.00712
lowerneck -2.57948 9.62765 2.20292
upperneck 9.21673 12.5312 2.07879
head 3.42928 6.3311 0.775154
lclavicle -3.57812e-14 -2.06736e-14 0
lhumerus 5.57022 12.4166 84.3419
lradius 93.2925 -0 0
lwrist -18.9822 0 0
lhand -39.5469 28.7041 3.31572e-07
lfingers 7.12502 -0 0
lthumb -12.531 58.3083 2.18222e-07
rclavicle -3.57812e-14 -2.06736e-14 0
rhumerus -59.2642 51.2391 -111.676
rradius 113.53 -0 0
rwrist -83.6312 0 0
rhand 8.10611 -26.202 -6.95031e-05
rfingers 7.12502 -0 0
rthumb 33.3281 -53.1344 -0.000753113
2860
root -6.09491 13.2432 -28.8076 160.752 -66.9781 -158.873
lfemur -66.4148 45.1213 -6.05572
ltibia 77.6588 -0 0
lfoot -5.06403 -6.52031 -0.000676445
ltoes -28.9077 0 0
rfemur -31.5002 -19.1509 22.417
rtibia 89.2703 -0 0
rfoot -41.0616 -29.4602 -0.00649548
rtoes -13.9938 0 0
lowerback 15.7509 5.59051 1.20119
upperback -4.54832 7.9933 1.65899
thorax -14.0297 3.67696 -1.01791
lowerneck -2.58378 9.62868 2.20352
upperneck 9.21646 12.5325 2.07959
head 3.43 6.33178 0.775612
lclavicle -3.57812e-14 -2.06736e-14 0
lhumerus 5.5748 12.4203 84.3417
lradius 93.2853 -0 0
lwrist -18.9761 0 0
lhand -39.5452 28.7135 -1.9365e-06
lfingers 7.12502 -0 0
lthumb -12.5293 58.3177 -1.99176e-06
rclavicle -3.57812e-14 -2.06736e-14 0
rhumerus -59.2624 51.2511 -111.672
rradius 113.527 -0 0
rwrist -83.6137 0 0
rhand 8.10599 -26.1935 -8.24369e-05
rfingers 7.12502 -0 0
rthumb 33.328 -53.1258 -0.000733488
2861
root -6.09462 13.2423 -28.8053 160.716 -66.9797 -158.824
lfemur -66.4454 45.1105 -6.05092
ltibia 77.6762 -0 0
lfoot -5.08933 -6.5204 -0.000698753
ltoes -28.9669 0 0
rfemur -31.5207 -19.1427 22.4397
rtibia 89.2817 -0 0
rfoot -41.043 -29.4972 -0.00613764
rtoes -14.011 0 0
lowerback 15.7653 5.58654 1.22394
upperback -4.55278 7.99369 1.66257
thorax -14.041 3.67485 -1.02822
lowerneck -2.58796 9.62969 2.20409
upperneck 9.21577 12.5337 2.08031
head 3.43054 6.33244 0.776025
lclavicle -3.57812e-14 -2.06736e-14 0
lhumerus 5.57793 12.4235 84.3412
lradius 93.279 -0 0
lwrist -18.9703 0 0
lhand -39.5436 28.7223 -4.00767e-06
lfingers 7.12502 -0 0
lthumb -12.5277 58.3267 -4.00868e-06
rclavicle -3.57812e-14 -2.06736e-14 0
rhumerus -59.26 51.2622 -111.667
rradius 113.526 -0 0
rwrist -83.597 0 0
rhand 8.10453 -26.1852 -9.30646e-05
rfingers 7.12502 -0 0
rthumb 33.3266 -53.1177 -0.000706942
2862
root -6.09439 13.2413 -28.8029 160.681 -66.9804 -158.777
lfemur -66.4727 45.0998 -6.04612
ltibia 77.6904 -0 0
lfoot -5.11374 -6.51876 -0.000708122
ltoes -29.0268 0 0
rfemur -31.5402 -19.1346 22.4611
rtibia 89.2906 -0 0
rfoot -41.0235 -29.5315 -0.00572992
rtoes -14.0281 0 0
lowerback 15.7789 5.58276 1.24564
upperback -4.55708 7.99408 1.66604
thorax -14.0517 3.67285 -1.038
lowerneck -2.59199 9.63066 2.20462
upperneck 9.21465 12.5349 2.08095
head 3.43091 6.3331 0.77639
lclavicle -3.57812e-14 -2.06736e-14 0
lhumerus 5.57956 12.4262 84.3406
lradius 93.2734 -0 0
lwrist -18.9648 0 0
lhand -39.5421 28.7307 -5.8182e-06
lfingers 7.12502 -0 0
lthumb -12.5263 58.3352 -5.77031e-06
rclavicle -3.57812e-14 -2.06736e-14 0
rhumerus -59.2572 51.2724 -111.662
rradius 113.524 -0 0
rwrist -83.5811 0 0
rhand 8.1017 -26.1772 -0.000101018
rfingers 7.12502 -0 0
rthumb 33.3239 -53.1101 -0.000673116
